{
    "asset" : {
        "generator" : "Khronos glTF Blender I/O v3.3.27",
        "version" : "2.0"
    },
    "extensionsUsed" : [
        "KHR_materials_specular",
        "KHR_materials_ior"
    ],
    "scene" : 0,
    "scenes" : [
        {
            "name" : "Scene",
            "nodes" : [
                0,
                1,
                2,
                3,
                4,
                5,
                6
            ]
        }
    ],
    "nodes" : [
        {
            "mesh" : 0,
            "name" : "Plano.001",
            "rotation" : [
                0,
                0.7071068286895752,
                0,
                0.7071068286895752
            ],
            "translation" : [
                -0.08053281903266907,
                0.174009308218956,
                -0.04627774655818939
            ]
        },
        {
            "mesh" : 1,
            "name" : "Plano.002",
            "rotation" : [
                0,
                0.7071068286895752,
                0,
                0.7071068286895752
            ],
            "translation" : [
                0.07383336126804352,
                0.174009308218956,
                -0.051911547780036926
            ]
        },
        {
            "mesh" : 2,
            "name" : "Plano.003",
            "rotation" : [
                0,
                0.7071068286895752,
                0,
                0.7071068286895752
            ],
            "translation" : [
                -0.08053282648324966,
                0.174009308218956,
                0.04611662030220032
            ]
        },
        {
            "mesh" : 3,
            "name" : "Texto",
            "rotation" : [
                0.5000000596046448,
                0.5000000596046448,
                -0.5,
                0.5
            ],
            "translation" : [
                0.2287328839302063,
                -0.032576482743024826,
                0.017446015030145645
            ]
        },
        {
            "mesh" : 4,
            "name" : "Texto.001",
            "rotation" : [
                0.5000000596046448,
                0.5000000596046448,
                -0.5,
                0.5
            ],
            "translation" : [
                0.007654443383216858,
                -0.032576482743024826,
                0.31474369764328003
            ]
        },
        {
            "mesh" : 5,
            "name" : "Texto.002",
            "rotation" : [
                0.5000000596046448,
                0.5000000596046448,
                -0.5,
                0.5
            ],
            "translation" : [
                0.21546874940395355,
                0.009045280516147614,
                -0.17195826768875122
            ]
        },
        {
            "mesh" : 6,
            "name" : "TQ_ARD-node",
            "translation" : [
                0,
                -0.0066534373909235,
                0
            ]
        }
    ],
    "materials" : [
        {
            "doubleSided" : true,
            "name" : "Material.001",
            "pbrMetallicRoughness" : {
                "baseColorFactor" : [
                    0.4902293384075165,
                    0.021092573180794716,
                    0,
                    1
                ],
                "metallicFactor" : 0
            }
        },
        {
            "doubleSided" : true,
            "extensions" : {
                "KHR_materials_specular" : {
                    "specularColorFactor" : [
                        0,
                        0,
                        0
                    ]
                },
                "KHR_materials_ior" : {
                    "ior" : 0
                }
            },
            "name" : "TQ_ARD_front",
            "pbrMetallicRoughness" : {
                "baseColorTexture" : {
                    "index" : 0
                },
                "metallicFactor" : 0,
                "roughnessFactor" : 0.5
            }
        },
        {
            "doubleSided" : true,
            "extensions" : {
                "KHR_materials_specular" : {
                    "specularColorFactor" : [
                        0,
                        0,
                        0
                    ]
                },
                "KHR_materials_ior" : {
                    "ior" : 0
                }
            },
            "name" : "TQ_ARD_back",
            "pbrMetallicRoughness" : {
                "baseColorTexture" : {
                    "index" : 1
                },
                "metallicFactor" : 0,
                "roughnessFactor" : 0.5
            }
        },
        {
            "doubleSided" : true,
            "extensions" : {
                "KHR_materials_specular" : {
                    "specularColorFactor" : [
                        0,
                        0,
                        0
                    ]
                },
                "KHR_materials_ior" : {
                    "ior" : 0
                }
            },
            "name" : "TQ_ARD_edge",
            "pbrMetallicRoughness" : {
                "baseColorTexture" : {
                    "index" : 2
                },
                "metallicFactor" : 0,
                "roughnessFactor" : 0.5
            }
        }
    ],
    "meshes" : [
        {
            "name" : "Plano",
            "primitives" : [
                {
                    "attributes" : {
                        "POSITION" : 0,
                        "NORMAL" : 1,
                        "TEXCOORD_0" : 2
                    },
                    "indices" : 3,
                    "material" : 0
                }
            ]
        },
        {
            "name" : "Plano.001",
            "primitives" : [
                {
                    "attributes" : {
                        "POSITION" : 4,
                        "NORMAL" : 5,
                        "TEXCOORD_0" : 6
                    },
                    "indices" : 7,
                    "material" : 0
                }
            ]
        },
        {
            "name" : "Plano.002",
            "primitives" : [
                {
                    "attributes" : {
                        "POSITION" : 8,
                        "NORMAL" : 9,
                        "TEXCOORD_0" : 10
                    },
                    "indices" : 11,
                    "material" : 0
                }
            ]
        },
        {
            "name" : "Texto",
            "primitives" : [
                {
                    "attributes" : {
                        "POSITION" : 12,
                        "NORMAL" : 13,
                        "TEXCOORD_0" : 14
                    },
                    "indices" : 15,
                    "material" : 0
                }
            ]
        },
        {
            "name" : "Texto.001",
            "primitives" : [
                {
                    "attributes" : {
                        "POSITION" : 16,
                        "NORMAL" : 17,
                        "TEXCOORD_0" : 18
                    },
                    "indices" : 19,
                    "material" : 0
                }
            ]
        },
        {
            "name" : "Texto.002",
            "primitives" : [
                {
                    "attributes" : {
                        "POSITION" : 20,
                        "NORMAL" : 21,
                        "TEXCOORD_0" : 22
                    },
                    "indices" : 23,
                    "material" : 0
                }
            ]
        },
        {
            "name" : "TQ_ARD-geom",
            "primitives" : [
                {
                    "attributes" : {
                        "POSITION" : 24,
                        "NORMAL" : 25,
                        "TEXCOORD_0" : 26
                    },
                    "indices" : 27,
                    "material" : 1
                },
                {
                    "attributes" : {
                        "POSITION" : 28,
                        "NORMAL" : 29,
                        "TEXCOORD_0" : 30
                    },
                    "indices" : 31,
                    "material" : 2
                },
                {
                    "attributes" : {
                        "POSITION" : 32,
                        "NORMAL" : 33,
                        "TEXCOORD_0" : 34
                    },
                    "indices" : 35,
                    "material" : 3
                }
            ]
        }
    ],
    "textures" : [
        {
            "sampler" : 0,
            "source" : 0
        },
        {
            "sampler" : 0,
            "source" : 1
        },
        {
            "sampler" : 0,
            "source" : 2
        }
    ],
    "images" : [
        {
            "bufferView" : 28,
            "mimeType" : "image/jpeg",
            "name" : "3"
        },
        {
            "bufferView" : 33,
            "mimeType" : "image/png",
            "name" : "TONTO"
        },
        {
            "bufferView" : 38,
            "mimeType" : "image/png",
            "name" : "TQ_ARD-I1"
        }
    ],
    "accessors" : [
        {
            "bufferView" : 0,
            "componentType" : 5126,
            "count" : 144,
            "max" : [
                0.1394737809896469,
                -0.20530609786510468,
                0.2789415717124939
            ],
            "min" : [
                -0.23074759542942047,
                -0.20646007359027863,
                0.2130943238735199
            ],
            "type" : "VEC3"
        },
        {
            "bufferView" : 1,
            "componentType" : 5126,
            "count" : 144,
            "type" : "VEC3"
        },
        {
            "bufferView" : 2,
            "componentType" : 5126,
            "count" : 144,
            "type" : "VEC2"
        },
        {
            "bufferView" : 3,
            "componentType" : 5123,
            "count" : 216,
            "type" : "SCALAR"
        },
        {
            "bufferView" : 4,
            "componentType" : 5126,
            "count" : 144,
            "max" : [
                -0.2508041262626648,
                -0.20530609786510468,
                0.04801986739039421
            ],
            "min" : [
                -0.3166514039039612,
                -0.20646007359027863,
                -0.19222214818000793
            ],
            "type" : "VEC3"
        },
        {
            "bufferView" : 5,
            "componentType" : 5126,
            "count" : 144,
            "type" : "VEC3"
        },
        {
            "bufferView" : 6,
            "componentType" : 5126,
            "count" : 144,
            "type" : "VEC2"
        },
        {
            "bufferView" : 7,
            "componentType" : 5123,
            "count" : 216,
            "type" : "SCALAR"
        },
        {
            "bufferView" : 8,
            "componentType" : 5126,
            "count" : 144,
            "max" : [
                0.23267421126365662,
                -0.12837420403957367,
                0.2789415717124939
            ],
            "min" : [
                0.23152020573616028,
                -0.20615404844284058,
                0.2130943238735199
            ],
            "type" : "VEC3"
        },
        {
            "bufferView" : 9,
            "componentType" : 5126,
            "count" : 144,
            "type" : "VEC3"
        },
        {
            "bufferView" : 10,
            "componentType" : 5126,
            "count" : 144,
            "type" : "VEC2"
        },
        {
            "bufferView" : 11,
            "componentType" : 5123,
            "count" : 216,
            "type" : "SCALAR"
        },
        {
            "bufferView" : 12,
            "componentType" : 5126,
            "count" : 1496,
            "max" : [
                0.028444325551390648,
                0.0010000000474974513,
                0.0001746241032378748
            ],
            "min" : [
                0.0012417713878676295,
                -0.0010000000474974513,
                -0.013407250866293907
            ],
            "type" : "VEC3"
        },
        {
            "bufferView" : 13,
            "componentType" : 5126,
            "count" : 1496,
            "type" : "VEC3"
        },
        {
            "bufferView" : 14,
            "componentType" : 5126,
            "count" : 1496,
            "type" : "VEC2"
        },
        {
            "bufferView" : 15,
            "componentType" : 5123,
            "count" : 2868,
            "type" : "SCALAR"
        },
        {
            "bufferView" : 16,
            "componentType" : 5126,
            "count" : 1242,
            "max" : [
                0.022138692438602448,
                0.0010000000474974513,
                0.00013554301403928548
            ],
            "min" : [
                0.0005120513960719109,
                -0.0010000000474974513,
                -0.010406691581010818
            ],
            "type" : "VEC3"
        },
        {
            "bufferView" : 17,
            "componentType" : 5126,
            "count" : 1242,
            "type" : "VEC3"
        },
        {
            "bufferView" : 18,
            "componentType" : 5126,
            "count" : 1242,
            "type" : "VEC2"
        },
        {
            "bufferView" : 19,
            "componentType" : 5123,
            "count" : 2388,
            "type" : "SCALAR"
        },
        {
            "bufferView" : 20,
            "componentType" : 5126,
            "count" : 528,
            "max" : [
                0.01903664320707321,
                0.0010000000474974513,
                0.00018265437392983586
            ],
            "min" : [
                0.0009944515768438578,
                -0.0010000000474974513,
                -0.013841141946613789
            ],
            "type" : "VEC3"
        },
        {
            "bufferView" : 21,
            "componentType" : 5126,
            "count" : 528,
            "type" : "VEC3"
        },
        {
            "bufferView" : 22,
            "componentType" : 5126,
            "count" : 528,
            "type" : "VEC2"
        },
        {
            "bufferView" : 23,
            "componentType" : 5123,
            "count" : 984,
            "type" : "SCALAR"
        },
        {
            "bufferView" : 24,
            "componentType" : 5126,
            "count" : 974,
            "max" : [
                0.1215902790427208,
                0.05208980292081833,
                0.18758782744407654
            ],
            "min" : [
                -0.12159030139446259,
                -0.02608579583466053,
                -0.1875878870487213
            ],
            "type" : "VEC3"
        },
        {
            "bufferView" : 25,
            "componentType" : 5126,
            "count" : 974,
            "type" : "VEC3"
        },
        {
            "bufferView" : 26,
            "componentType" : 5126,
            "count" : 974,
            "type" : "VEC2"
        },
        {
            "bufferView" : 27,
            "componentType" : 5123,
            "count" : 1950,
            "type" : "SCALAR"
        },
        {
            "bufferView" : 29,
            "componentType" : 5126,
            "count" : 828,
            "max" : [
                0.12099923193454742,
                0.050502292811870575,
                0.18553534150123596
            ],
            "min" : [
                -0.12099932134151459,
                -0.026000995188951492,
                -0.18553541600704193
            ],
            "type" : "VEC3"
        },
        {
            "bufferView" : 30,
            "componentType" : 5126,
            "count" : 828,
            "type" : "VEC3"
        },
        {
            "bufferView" : 31,
            "componentType" : 5126,
            "count" : 828,
            "type" : "VEC2"
        },
        {
            "bufferView" : 32,
            "componentType" : 5123,
            "count" : 1950,
            "type" : "SCALAR"
        },
        {
            "bufferView" : 34,
            "componentType" : 5126,
            "count" : 1282,
            "max" : [
                0.1215883120894432,
                0.05208980292081833,
                0.18758782744407654
            ],
            "min" : [
                -0.121588334441185,
                -0.02608579583466053,
                -0.1875878870487213
            ],
            "type" : "VEC3"
        },
        {
            "bufferView" : 35,
            "componentType" : 5126,
            "count" : 1282,
            "type" : "VEC3"
        },
        {
            "bufferView" : 36,
            "componentType" : 5126,
            "count" : 1282,
            "type" : "VEC2"
        },
        {
            "bufferView" : 37,
            "componentType" : 5123,
            "count" : 1956,
            "type" : "SCALAR"
        }
    ],
    "bufferViews" : [
        {
            "buffer" : 0,
            "byteLength" : 1728,
            "byteOffset" : 0,
            "target" : 34962
        },
        {
            "buffer" : 0,
            "byteLength" : 1728,
            "byteOffset" : 1728,
            "target" : 34962
        },
        {
            "buffer" : 0,
            "byteLength" : 1152,
            "byteOffset" : 3456,
            "target" : 34962
        },
        {
            "buffer" : 0,
            "byteLength" : 432,
            "byteOffset" : 4608,
            "target" : 34963
        },
        {
            "buffer" : 0,
            "byteLength" : 1728,
            "byteOffset" : 5040,
            "target" : 34962
        },
        {
            "buffer" : 0,
            "byteLength" : 1728,
            "byteOffset" : 6768,
            "target" : 34962
        },
        {
            "buffer" : 0,
            "byteLength" : 1152,
            "byteOffset" : 8496,
            "target" : 34962
        },
        {
            "buffer" : 0,
            "byteLength" : 432,
            "byteOffset" : 9648,
            "target" : 34963
        },
        {
            "buffer" : 0,
            "byteLength" : 1728,
            "byteOffset" : 10080,
            "target" : 34962
        },
        {
            "buffer" : 0,
            "byteLength" : 1728,
            "byteOffset" : 11808,
            "target" : 34962
        },
        {
            "buffer" : 0,
            "byteLength" : 1152,
            "byteOffset" : 13536,
            "target" : 34962
        },
        {
            "buffer" : 0,
            "byteLength" : 432,
            "byteOffset" : 14688,
            "target" : 34963
        },
        {
            "buffer" : 0,
            "byteLength" : 17952,
            "byteOffset" : 15120,
            "target" : 34962
        },
        {
            "buffer" : 0,
            "byteLength" : 17952,
            "byteOffset" : 33072,
            "target" : 34962
        },
        {
            "buffer" : 0,
            "byteLength" : 11968,
            "byteOffset" : 51024,
            "target" : 34962
        },
        {
            "buffer" : 0,
            "byteLength" : 5736,
            "byteOffset" : 62992,
            "target" : 34963
        },
        {
            "buffer" : 0,
            "byteLength" : 14904,
            "byteOffset" : 68728,
            "target" : 34962
        },
        {
            "buffer" : 0,
            "byteLength" : 14904,
            "byteOffset" : 83632,
            "target" : 34962
        },
        {
            "buffer" : 0,
            "byteLength" : 9936,
            "byteOffset" : 98536,
            "target" : 34962
        },
        {
            "buffer" : 0,
            "byteLength" : 4776,
            "byteOffset" : 108472,
            "target" : 34963
        },
        {
            "buffer" : 0,
            "byteLength" : 6336,
            "byteOffset" : 113248,
            "target" : 34962
        },
        {
            "buffer" : 0,
            "byteLength" : 6336,
            "byteOffset" : 119584,
            "target" : 34962
        },
        {
            "buffer" : 0,
            "byteLength" : 4224,
            "byteOffset" : 125920,
            "target" : 34962
        },
        {
            "buffer" : 0,
            "byteLength" : 1968,
            "byteOffset" : 130144,
            "target" : 34963
        },
        {
            "buffer" : 0,
            "byteLength" : 11688,
            "byteOffset" : 132112,
            "target" : 34962
        },
        {
            "buffer" : 0,
            "byteLength" : 11688,
            "byteOffset" : 143800,
            "target" : 34962
        },
        {
            "buffer" : 0,
            "byteLength" : 7792,
            "byteOffset" : 155488,
            "target" : 34962
        },
        {
            "buffer" : 0,
            "byteLength" : 3900,
            "byteOffset" : 163280,
            "target" : 34963
        },
        {
            "buffer" : 0,
            "byteLength" : 274291,
            "byteOffset" : 167180
        },
        {
            "buffer" : 0,
            "byteLength" : 9936,
            "byteOffset" : 441472,
            "target" : 34962
        },
        {
            "buffer" : 0,
            "byteLength" : 9936,
            "byteOffset" : 451408,
            "target" : 34962
        },
        {
            "buffer" : 0,
            "byteLength" : 6624,
            "byteOffset" : 461344,
            "target" : 34962
        },
        {
            "buffer" : 0,
            "byteLength" : 3900,
            "byteOffset" : 467968,
            "target" : 34963
        },
        {
            "buffer" : 0,
            "byteLength" : 1060605,
            "byteOffset" : 471868
        },
        {
            "buffer" : 0,
            "byteLength" : 15384,
            "byteOffset" : 1532476,
            "target" : 34962
        },
        {
            "buffer" : 0,
            "byteLength" : 15384,
            "byteOffset" : 1547860,
            "target" : 34962
        },
        {
            "buffer" : 0,
            "byteLength" : 10256,
            "byteOffset" : 1563244,
            "target" : 34962
        },
        {
            "buffer" : 0,
            "byteLength" : 3912,
            "byteOffset" : 1573500,
            "target" : 34963
        },
        {
            "buffer" : 0,
            "byteLength" : 313,
            "byteOffset" : 1577412
        }
    ],
    "samplers" : [
        {
            "magFilter" : 9729,
            "minFilter" : 9987
        }
    ],
    "buffers" : [
        {
            "byteLength" : 1577728,
            "uri" : "data:application/octet-stream;base64,"
        }
    ]
}
